<svg width="87" height="16" viewBox="0 0 87 16" fill="none" xmlns="http://www.w3.org/2000/svg">
<path d="M5.56 12.18C5.50667 12.3667 7.45333 12.3533 11.4 12.14L11.38 15.22C4.15333 15.2867 0.46 15.1467 0.3 14.8C0.246667 14.6533 0.526667 14.0267 1.14 12.92C1.76667 11.8 2.41333 10.72 3.08 9.68L4.06 8.14C1.55333 4.36667 0.3 2.27333 0.3 1.86C0.3 1.75333 0.68 1.65333 1.44 1.56C2.21333 1.45333 3.14 1.37333 4.22 1.32C5.3 1.25333 6.38 1.2 7.46 1.16C8.55333 1.10667 9.48 1.07333 10.24 1.06L11.38 1.04L11.56 4.26C7.58667 4.23333 5.56 4.29333 5.48 4.44C5.45333 4.46667 5.66 4.76667 6.1 5.34C6.55333 5.9 7.01333 6.48 7.48 7.08C7.94667 7.68 8.19333 8.03333 8.22 8.14C8.26 8.24667 8.06 8.62667 7.62 9.28C7.18 9.93333 6.72667 10.5733 6.26 11.2C5.79333 11.8267 5.56 12.1533 5.56 12.18ZM17.0717 11.3C17.1251 11.38 17.7584 11.4333 18.9717 11.46C20.1984 11.4867 21.4051 11.5 22.5917 11.5C23.7784 11.4867 24.3717 11.48 24.3717 11.48L24.2317 15C24.2317 15 21.5384 15.08 16.1517 15.24C14.3517 15.2667 13.4317 15.2467 13.3917 15.18C13.3117 15.0467 13.2317 13.8 13.1517 11.44C13.0851 9.06667 13.0317 6.73333 12.9917 4.44L12.9317 0.979999L16.7717 1.1C16.8784 7.79333 16.9784 11.1933 17.0717 11.3ZM32.9922 8.68C32.9655 8.76 32.9589 9.33333 32.9722 10.4C32.9989 11.4667 33.0255 12.5133 33.0522 13.54C33.0922 14.5667 33.1122 15.08 33.1122 15.08L29.4122 15.24C29.4789 11.0267 29.5122 8.86 29.5122 8.74C29.5122 8.68667 29.0855 8.18 28.2322 7.22C27.3922 6.24667 26.5522 5.29333 25.7122 4.36L24.4522 2.94L27.4122 0.999999C29.8655 3.82667 31.1389 5.24 31.2322 5.24C31.2722 5.24 31.5522 4.89333 32.0722 4.2C32.5922 3.49333 33.0989 2.79333 33.5922 2.1L34.3322 1.04L37.4922 2.9C34.5322 6.58 33.0322 8.50667 32.9922 8.68ZM42.3205 5.1C42.3205 5.14 42.8605 5.65333 43.9405 6.64C45.0205 7.62667 46.1005 8.63333 47.1805 9.66C48.2605 10.6867 48.8005 11.2667 48.8005 11.4C48.8005 11.6267 47.9205 12.32 46.1605 13.48C44.4005 14.6267 43.3938 15.2 43.1405 15.2C43.0071 15.2 42.5138 14.98 41.6605 14.54C40.8205 14.0867 40.0138 13.64 39.2405 13.2L38.0805 12.52L39.8805 9.9C41.9338 11.0867 43.0005 11.7133 43.0805 11.78C43.1071 11.7933 43.2605 11.7 43.5405 11.5C43.8338 11.3 44.0138 11.1667 44.0805 11.1C44.0938 11.0867 43.8871 10.88 43.4605 10.48C43.0338 10.0667 42.5071 9.57333 41.8805 9C41.2671 8.42667 40.6471 7.84667 40.0205 7.26C39.4071 6.67333 38.8805 6.15333 38.4405 5.7C38.0005 5.24667 37.7805 4.98 37.7805 4.9C37.7805 4.66 38.5938 3.90667 40.2205 2.64C41.8605 1.36 42.8138 0.719999 43.0805 0.719999C43.2271 0.719999 43.7138 0.946666 44.5405 1.4C45.3805 1.84 46.1805 2.28667 46.9405 2.74L48.0805 3.4L46.2605 5.82C44.5671 4.67333 43.6471 4.08 43.5005 4.04C43.4071 4.01333 43.1871 4.16667 42.8405 4.5C42.4938 4.82 42.3205 5.02 42.3205 5.1ZM53.9625 1.22L54.1225 15H50.1225L50.0625 1.3L53.9625 1.22ZM63.5577 0.96L67.3777 1.34C67.3777 1.79333 67.291 3.18 67.1177 5.5C66.9577 7.82 66.791 10.0267 66.6177 12.12L66.3777 15.26L62.9377 15.22L62.9777 14.34C59.3377 15.0867 57.4043 15.38 57.1777 15.22C57.0577 15.1267 56.8777 13.9267 56.6377 11.62C56.3977 9.3 56.191 7.00667 56.0177 4.74L55.7377 1.34L59.5977 0.96C59.9443 8.17333 60.2643 11.8 60.5577 11.84C60.7843 11.88 61.631 11.72 63.0977 11.36L63.5577 0.96ZM86.4102 14.94H82.3702C82.3968 11.1933 82.3768 9.12667 82.3102 8.74C82.2968 8.7 81.9168 9.05333 81.1702 9.8C80.4368 10.5467 79.6702 11.3133 78.8702 12.1C78.0702 12.8733 77.6235 13.26 77.5302 13.26C77.3968 13.26 76.9435 12.8467 76.1702 12.02C75.3968 11.1933 74.6568 10.3933 73.9502 9.62C73.2435 8.84667 72.8768 8.5 72.8502 8.58C72.8235 8.7 72.7902 9.01333 72.7502 9.52C72.7235 10.0133 72.6968 10.5733 72.6702 11.2C72.6568 11.8267 72.6435 12.4467 72.6302 13.06C72.6168 13.6733 72.6035 14.1867 72.5902 14.6V15.22L68.5702 14.88C69.1568 5.88 69.6502 1.25333 70.0502 0.999999C70.1702 0.919999 70.5102 1.12 71.0702 1.6C71.6302 2.06667 72.2635 2.66667 72.9702 3.4C73.6902 4.12 74.3968 4.84667 75.0902 5.58C75.7968 6.31333 76.3902 6.94 76.8702 7.46C77.3635 7.98 77.6235 8.23333 77.6502 8.22C77.6768 8.20667 78.3168 7.56 79.5702 6.28C80.8235 5 82.0835 3.77333 83.3502 2.6C84.6168 1.41333 85.3302 0.879999 85.4902 0.999999C85.5968 1.09333 85.7035 1.63333 85.8102 2.62C85.9168 3.60667 86.0035 4.78 86.0702 6.14C86.1368 7.48667 86.1968 8.82667 86.2502 10.16C86.3035 11.4933 86.3435 12.6267 86.3702 13.56L86.4102 14.94Z" fill="black"/>
</svg>
