<svg width="32" height="32" viewBox="0 0 32 32" fill="none" xmlns="http://www.w3.org/2000/svg">
<g clip-path="url(#clip0_6_9)">
<circle cx="16" cy="16" r="16" fill="#D9D9D9"/>
<path d="M28.865 24.5C26.9613 21.2087 24.0275 18.8487 20.6038 17.73C22.2973 16.7218 23.6131 15.1856 24.349 13.3572C25.085 11.5289 25.2004 9.5095 24.6776 7.60919C24.1548 5.70889 23.0226 4.03274 21.455 2.83815C19.8873 1.64357 17.9709 0.996597 16 0.996597C14.0291 0.996597 12.1127 1.64357 10.545 2.83815C8.9774 4.03274 7.84525 5.70889 7.32243 7.60919C6.79961 9.5095 6.91504 11.5289 7.65099 13.3572C8.38694 15.1856 9.70271 16.7218 11.3963 17.73C7.9725 18.8475 5.03875 21.2075 3.135 24.5C3.06519 24.6138 3.01888 24.7405 2.99881 24.8725C2.97875 25.0045 2.98532 25.1392 3.01816 25.2687C3.05099 25.3981 3.10942 25.5197 3.18999 25.6262C3.27056 25.7327 3.37165 25.8219 3.48728 25.8887C3.60292 25.9555 3.73076 25.9985 3.86326 26.0151C3.99577 26.0316 4.13025 26.0215 4.25878 25.9853C4.38731 25.9491 4.50728 25.8874 4.61161 25.8041C4.71595 25.7208 4.80253 25.6174 4.86625 25.5C7.22125 21.43 11.3838 19 16 19C20.6163 19 24.7788 21.43 27.1338 25.5C27.1975 25.6174 27.2841 25.7208 27.3884 25.8041C27.4927 25.8874 27.6127 25.9491 27.7412 25.9853C27.8698 26.0215 28.0042 26.0316 28.1367 26.0151C28.2692 25.9985 28.3971 25.9555 28.5127 25.8887C28.6284 25.8219 28.7294 25.7327 28.81 25.6262C28.8906 25.5197 28.949 25.3981 28.9818 25.2687C29.0147 25.1392 29.0213 25.0045 29.0012 24.8725C28.9811 24.7405 28.9348 24.6138 28.865 24.5ZM9 10C9 8.61553 9.41055 7.26215 10.1797 6.11101C10.9489 4.95986 12.0421 4.06265 13.3212 3.53284C14.6003 3.00303 16.0078 2.8644 17.3656 3.1345C18.7235 3.4046 19.9708 4.07128 20.9497 5.05025C21.9287 6.02922 22.5954 7.2765 22.8655 8.63437C23.1356 9.99223 22.997 11.3997 22.4672 12.6788C21.9373 13.9579 21.0401 15.0511 19.889 15.8203C18.7379 16.5895 17.3845 17 16 17C14.1441 16.998 12.3648 16.2599 11.0524 14.9476C9.74012 13.6352 9.00199 11.8559 9 10Z" fill="black"/>
</g>
<defs>
<clipPath id="clip0_6_9">
<rect width="32" height="32" fill="white"/>
</clipPath>
</defs>
</svg>
